# xmcd CD database file
#
# Track frame offsets:
#	150
#	17692
#	34911
#	54414
#	71459
#	88131
#	107666
#	125630
#	147397
#	164081
#	181342
#	200356
#	217808
#	237154
#	255724
#
# Disc length: 3644 seconds
#
# Revision: 1
# Processed by: cddbd v1.5.2PL0 Copyright (c) Steve Scherf et al.
# Submitted via: CDex 1.51
#
DISCID=d70e3a0f
DTITLE=Various Artist - STTW-3146
DYEAR=1900
DGENRE=Blues
TTITLE0=Craig David - Hot Stuff (let's Dance)
TTITLE1=Mark Ronson FT Amy Winehouse - Valerie
TTITLE2=Take That - Rule The World 
TTITLE3=Avril Lavigne - Hot
TTITLE4=McFly - The Heart Never Lies
TTITLE5=Kate Nash - Foundations
TTITLE6=Scouting For Girls - Elvis Ain't Dead
TTITLE7=Fergie - Big Girls Don't Cry
TTITLE8=Kaiser Chiefs - Love's Not A Competition (but I'm Winning)
TTITLE9=Natasha Bedingfield - Say It Again
TTITLE10=Newton Faulkner - Dream Catch Me
TTITLE11=Katie Melua - If You Were A Sail Boat
TTITLE12=Mika Big Girl -  (You Are Beautiful)
TTITLE13=Jojo - Anything
TTITLE14=Manic Street Preachers - Autumnsong
EXTD=
EXTT0=
EXTT1=
EXTT2=
EXTT3=
EXTT4=
EXTT5=
EXTT6=
EXTT7=
EXTT8=
EXTT9=
EXTT10=
EXTT11=
EXTT12=
EXTT13=
EXTT14=
PLAYORDER=
